<mxfile host="app.diagrams.net" agent="Mozilla/5.0 (Macintosh; Intel Mac OS X 10_15_7) AppleWebKit/605.1.15 (KHTML, like Gecko) Version/18.0 Safari/605.1.15" version="24.7.16">
  <diagram name="Pagina-1" id="6IM6mR5A3M0bPb4tJbSo">
    <mxGraphModel dx="1434" dy="855" grid="1" gridSize="10" guides="1" tooltips="1" connect="1" arrows="1" fold="1" page="1" pageScale="1" pageWidth="827" pageHeight="1169" math="0" shadow="0">
      <root>
        <mxCell id="0" />
        <mxCell id="1" parent="0" />
        <mxCell id="XRIO1jq7R4I5tZosnNoh-8" style="edgeStyle=orthogonalEdgeStyle;rounded=0;orthogonalLoop=1;jettySize=auto;html=1;exitX=0.75;exitY=1;exitDx=0;exitDy=0;entryX=0.5;entryY=0;entryDx=0;entryDy=0;" edge="1" parent="1" source="XRIO1jq7R4I5tZosnNoh-1" target="XRIO1jq7R4I5tZosnNoh-3">
          <mxGeometry relative="1" as="geometry" />
        </mxCell>
        <mxCell id="XRIO1jq7R4I5tZosnNoh-16" style="edgeStyle=orthogonalEdgeStyle;rounded=0;orthogonalLoop=1;jettySize=auto;html=1;entryX=0.5;entryY=0;entryDx=0;entryDy=0;" edge="1" parent="1" source="XRIO1jq7R4I5tZosnNoh-1" target="XRIO1jq7R4I5tZosnNoh-2">
          <mxGeometry relative="1" as="geometry" />
        </mxCell>
        <mxCell id="XRIO1jq7R4I5tZosnNoh-1" value="Weather preprocessor&lt;div&gt;(LSTM)&lt;/div&gt;" style="rounded=1;whiteSpace=wrap;html=1;" vertex="1" parent="1">
          <mxGeometry x="200" y="100" width="120" height="60" as="geometry" />
        </mxCell>
        <mxCell id="XRIO1jq7R4I5tZosnNoh-6" style="edgeStyle=orthogonalEdgeStyle;rounded=0;orthogonalLoop=1;jettySize=auto;html=1;exitX=1;exitY=0.5;exitDx=0;exitDy=0;entryX=0;entryY=0.5;entryDx=0;entryDy=0;" edge="1" parent="1" source="XRIO1jq7R4I5tZosnNoh-2" target="XRIO1jq7R4I5tZosnNoh-3">
          <mxGeometry relative="1" as="geometry" />
        </mxCell>
        <mxCell id="XRIO1jq7R4I5tZosnNoh-13" value="&lt;font style=&quot;font-size: 16px;&quot;&gt;Ẑ&lt;sub&gt;t,1:d&lt;/sub&gt;&lt;/font&gt;" style="edgeLabel;html=1;align=center;verticalAlign=middle;resizable=0;points=[];" vertex="1" connectable="0" parent="XRIO1jq7R4I5tZosnNoh-6">
          <mxGeometry y="-1" relative="1" as="geometry">
            <mxPoint as="offset" />
          </mxGeometry>
        </mxCell>
        <mxCell id="XRIO1jq7R4I5tZosnNoh-2" value="Density regressor&lt;div&gt;(PGA-LSTM)&lt;/div&gt;" style="rounded=1;whiteSpace=wrap;html=1;" vertex="1" parent="1">
          <mxGeometry x="200" y="210" width="120" height="60" as="geometry" />
        </mxCell>
        <mxCell id="XRIO1jq7R4I5tZosnNoh-14" style="edgeStyle=orthogonalEdgeStyle;rounded=0;orthogonalLoop=1;jettySize=auto;html=1;" edge="1" parent="1" source="XRIO1jq7R4I5tZosnNoh-3">
          <mxGeometry relative="1" as="geometry">
            <mxPoint x="600" y="240" as="targetPoint" />
          </mxGeometry>
        </mxCell>
        <mxCell id="XRIO1jq7R4I5tZosnNoh-15" value="&lt;font style=&quot;font-size: 16px;&quot;&gt;T&lt;sub&gt;t,1:d&lt;/sub&gt;&lt;/font&gt;" style="edgeLabel;html=1;align=center;verticalAlign=middle;resizable=0;points=[];" vertex="1" connectable="0" parent="XRIO1jq7R4I5tZosnNoh-14">
          <mxGeometry x="1" y="3" relative="1" as="geometry">
            <mxPoint x="20" y="3" as="offset" />
          </mxGeometry>
        </mxCell>
        <mxCell id="XRIO1jq7R4I5tZosnNoh-3" value="Temperature regressor&lt;div&gt;(Dense)&lt;/div&gt;" style="rounded=1;whiteSpace=wrap;html=1;" vertex="1" parent="1">
          <mxGeometry x="430" y="210" width="120" height="60" as="geometry" />
        </mxCell>
        <mxCell id="XRIO1jq7R4I5tZosnNoh-5" style="edgeStyle=orthogonalEdgeStyle;rounded=0;orthogonalLoop=1;jettySize=auto;html=1;" edge="1" parent="1" source="XRIO1jq7R4I5tZosnNoh-4" target="XRIO1jq7R4I5tZosnNoh-2">
          <mxGeometry relative="1" as="geometry" />
        </mxCell>
        <mxCell id="XRIO1jq7R4I5tZosnNoh-12" style="edgeStyle=orthogonalEdgeStyle;rounded=0;orthogonalLoop=1;jettySize=auto;html=1;entryX=0.5;entryY=1;entryDx=0;entryDy=0;" edge="1" parent="1" source="XRIO1jq7R4I5tZosnNoh-4" target="XRIO1jq7R4I5tZosnNoh-3">
          <mxGeometry relative="1" as="geometry">
            <Array as="points">
              <mxPoint x="140" y="300" />
              <mxPoint x="490" y="300" />
            </Array>
          </mxGeometry>
        </mxCell>
        <mxCell id="XRIO1jq7R4I5tZosnNoh-4" value="&lt;span style=&quot;font-size: 16px;&quot;&gt;&lt;span style=&quot;vertical-align: sub;&quot;&gt;&lt;i&gt;D&lt;/i&gt;&lt;/span&gt;&lt;sub&gt;t,1:d&lt;/sub&gt;&lt;/span&gt;" style="text;strokeColor=none;fillColor=none;align=left;verticalAlign=middle;spacingLeft=4;spacingRight=4;overflow=hidden;points=[[0,0.5],[1,0.5]];portConstraint=eastwest;rotatable=0;whiteSpace=wrap;html=1;" vertex="1" parent="1">
          <mxGeometry x="100" y="260" width="50" height="30" as="geometry" />
        </mxCell>
        <mxCell id="XRIO1jq7R4I5tZosnNoh-10" style="edgeStyle=orthogonalEdgeStyle;rounded=0;orthogonalLoop=1;jettySize=auto;html=1;entryX=0;entryY=0.5;entryDx=0;entryDy=0;" edge="1" parent="1" source="XRIO1jq7R4I5tZosnNoh-9" target="XRIO1jq7R4I5tZosnNoh-1">
          <mxGeometry relative="1" as="geometry" />
        </mxCell>
        <mxCell id="XRIO1jq7R4I5tZosnNoh-9" value="&lt;font style=&quot;font-size: 16px;&quot;&gt;&lt;i&gt;W&lt;/i&gt;&lt;sub&gt;t-7:t&lt;/sub&gt;&lt;/font&gt;" style="text;strokeColor=none;fillColor=none;align=left;verticalAlign=middle;spacingLeft=4;spacingRight=4;overflow=hidden;points=[[0,0.5],[1,0.5]];portConstraint=eastwest;rotatable=0;whiteSpace=wrap;html=1;" vertex="1" parent="1">
          <mxGeometry x="100" y="115" width="50" height="30" as="geometry" />
        </mxCell>
      </root>
    </mxGraphModel>
  </diagram>
</mxfile>
